<?xml version="1.0" encoding="UTF-8" standalone="no"?>
<svg
   xmlns:dc="http://purl.org/dc/elements/1.1/"
   xmlns:cc="http://creativecommons.org/ns#"
   xmlns:rdf="http://www.w3.org/1999/02/22-rdf-syntax-ns#"
   xmlns:svg="http://www.w3.org/2000/svg"
   xmlns="http://www.w3.org/2000/svg"
   height="16"
   viewBox="0 0 16 16"
   width="16"
   version="1.1"
   id="svg4">
  <metadata
     id="metadata10">
    <rdf:RDF>
      <cc:Work
         rdf:about="">
        <dc:format>image/svg+xml</dc:format>
        <dc:type
           rdf:resource="http://purl.org/dc/dcmitype/StillImage" />
        <dc:title></dc:title>
      </cc:Work>
    </rdf:RDF>
  </metadata>
  <defs
     id="defs8" />
  <rect
     style="fill:#486649;stroke:none;stroke-width:1;stroke-opacity:1;fill-opacity:1"
     id="rect971"
     width="10"
     height="10"
     x="3"
     y="3" />
  <path
     d="M 3,1 C 1.8954,1 1,1.89543 1,3 v 10 c 0,1.1046 0.89543,2 2,2 h 10 c 1.1046,0 2,-0.89543 2,-2 V 3 C 15,1.8954 14.10457,1 13,1 Z M 3,3 H 13 V 13 H 3 Z"
     fill="#a5efac"
     id="path2" />
  <rect
     style="fill:#a5efac;stroke-width:0.999999"
     id="rect839-5"
     width="2"
     height="2"
     x="11"
     y="7" />
  <rect
     style="fill:#a5efac;stroke-width:0.999999"
     id="rect839-3"
     width="2"
     height="2"
     x="2"
     y="7" />
  <rect
     style="fill:#a5efac;stroke-width:0.999999"
     id="rect839-5-5"
     width="2"
     height="2"
     x="5"
     y="7" />
  <path
     style="fill:none;stroke:#608c64;stroke-width:0.999997px;stroke-linecap:butt;stroke-linejoin:miter;stroke-opacity:1"
     d="m 8.4999993,3 -8e-7,10"
     id="path949" />
  <rect
     style="fill:#a5efac;stroke-width:0.999999"
     id="rect839"
     width="2"
     height="2"
     x="8"
     y="7" />
</svg>
